<?xml version="1.0" encoding="utf-8" ?>
<svg baseProfile="tiny" height="580.0" version="1.2" width="580.0" xmlns="http://www.w3.org/2000/svg" xmlns:ev="http://www.w3.org/2001/xml-events" xmlns:xlink="http://www.w3.org/1999/xlink"><defs /><g id="polys" transform="translate(290.0,290.0)"><polygon points="198.9705,-6.5 0.0,-6.5 0.0,6.5 198.9705,6.5 200.0,0.0" /><polygon points="191.2408,55.3034 2.0086,-6.1819 -2.0086,6.1819 187.2236,67.6671 190.2113,61.8034" /><polygon points="164.7911,111.6933 3.8206,-5.2586 -3.8206,5.2586 157.1499,122.2105 161.8034,117.5571" /><polygon points="122.2105,157.1499 5.2586,-3.8206 -5.2586,3.8206 111.6933,164.7911 117.5571,161.8034" /><polygon points="67.6671,187.2236 6.1819,-2.0086 -6.1819,2.0086 55.3034,191.2408 61.8034,190.2113" /><polygon points="6.5,198.9705 6.5,0.0 -6.5,0.0 -6.5,198.9705 0.0,200.0" /><polygon points="-55.3034,191.2408 6.1819,2.0086 -6.1819,-2.0086 -67.6671,187.2236 -61.8034,190.2113" /><polygon points="-111.6933,164.7911 5.2586,3.8206 -5.2586,-3.8206 -122.2105,157.1499 -117.5571,161.8034" /><polygon points="-157.1499,122.2105 3.8206,5.2586 -3.8206,-5.2586 -164.7911,111.6933 -161.8034,117.5571" /><polygon points="-187.2236,67.6671 2.0086,6.1819 -2.0086,-6.1819 -191.2408,55.3034 -190.2113,61.8034" /><polygon points="-198.9705,6.5 0.0,6.5 -0.0,-6.5 -198.9705,-6.5 -200.0,0.0" /><polygon points="-191.2408,-55.3034 -2.0086,6.1819 2.0086,-6.1819 -187.2236,-67.6671 -190.2113,-61.8034" /><polygon points="-164.7911,-111.6933 -3.8206,5.2586 3.8206,-5.2586 -157.1499,-122.2105 -161.8034,-117.5571" /><polygon points="-122.2105,-157.1499 -5.2586,3.8206 5.2586,-3.8206 -111.6933,-164.7911 -117.5571,-161.8034" /><polygon points="-67.6671,-187.2236 -6.1819,2.0086 6.1819,-2.0086 -55.3034,-191.2408 -61.8034,-190.2113" /><polygon points="-6.5,-198.9705 -6.5,0.0 6.5,-0.0 6.5,-198.9705 -0.0,-200.0" /><polygon points="55.3034,-191.2408 -6.1819,-2.0086 6.1819,2.0086 67.6671,-187.2236 61.8034,-190.2113" /><polygon points="111.6933,-164.7911 -5.2586,-3.8206 5.2586,3.8206 122.2105,-157.1499 117.5571,-161.8034" /><polygon points="157.1499,-122.2105 -3.8206,-5.2586 3.8206,5.2586 164.7911,-111.6933 161.8034,-117.5571" /><polygon points="187.2236,-67.6671 -2.0086,-6.1819 2.0086,6.1819 191.2408,-55.3034 190.2113,-61.8034" /><polygon points="40.0,0.0 74.238,11.1246 79.438,11.1246 79.6925,9.5177 50.4,0.0" /><polygon points="80.0,0.0 122.5141,13.8137 127.7141,13.8137 127.9686,12.2068 90.4,0.0" /><polygon points="120.0,0.0 197.2811,25.1102 202.4811,25.1102 202.7356,23.5033 130.4,0.0" /><polygon points="160.0,0.0 234.5339,24.2175 239.7339,24.2175 239.9884,22.6106 170.4,0.0" /><polygon points="40.0,-0.0 74.238,-11.1246 79.438,-11.1246 79.6925,-9.5177 50.4,-0.0" /><polygon points="80.0,-0.0 122.5141,-13.8137 127.7141,-13.8137 127.9686,-12.2068 90.4,-0.0" /><polygon points="120.0,-0.0 197.2811,-25.1102 202.4811,-25.1102 202.7356,-23.5033 130.4,-0.0" /><polygon points="160.0,-0.0 234.5339,-24.2175 239.7339,-24.2175 239.9884,-22.6106 170.4,-0.0" /><polygon points="38.0423,12.3607 67.1669,33.5209 72.1124,35.1278 72.851,33.6782 47.9332,15.5745" /><polygon points="76.0845,24.7214 112.2492,50.9965 117.1947,52.6034 117.9333,51.1538 85.9755,27.9351" /><polygon points="114.1268,37.082 179.866,84.8444 184.8115,86.4513 185.5501,85.0017 124.0178,40.2958" /><polygon points="152.169,49.4427 215.5714,95.5072 220.5169,97.1141 221.2555,95.6645 162.06,52.6565" /><polygon points="38.0423,12.3607 74.0423,12.3607 78.9878,13.9676 78.7332,15.5745 47.9332,15.5745" /><polygon points="76.0845,24.7214 120.7865,24.7214 125.732,26.3282 125.4775,27.9351 85.9755,27.9351" /><polygon points="114.1268,37.082 195.3849,37.082 200.3304,38.6889 200.0759,40.2958 124.0178,40.2958" /><polygon points="152.169,49.4427 230.5386,49.4427 235.4841,51.0496 235.2296,52.6565 162.06,52.6565" /><polygon points="32.3607,23.5114 53.5209,52.636 57.7278,55.6925 58.8782,54.5421 40.7745,29.6244" /><polygon points="64.7214,47.0228 90.9965,83.1875 95.2034,86.244 96.3538,85.0936 73.1351,53.1358" /><polygon points="97.082,70.5342 144.8444,136.2735 149.0513,139.3299 150.2017,138.1795 105.4958,76.6472" /><polygon points="129.4427,94.0456 175.5072,157.448 179.7141,160.5045 180.8645,159.354 137.8565,100.1586" /><polygon points="32.3607,23.5114 66.5987,34.636 70.8056,37.6925 70.067,39.1421 40.7745,29.6244" /><polygon points="64.7214,47.0228 107.2355,60.8365 111.4424,63.893 110.7038,65.3426 73.1351,53.1358" /><polygon points="97.082,70.5342 174.3631,95.6444 178.57,98.7009 177.8314,100.1505 105.4958,76.6472" /><polygon points="129.4427,94.0456 203.9766,118.2632 208.1835,121.3197 207.4449,122.7693 137.8565,100.1586" /><polygon points="23.5114,32.3607 34.636,66.5987 37.6925,70.8056 39.1421,70.067 29.6244,40.7745" /><polygon points="47.0228,64.7214 60.8365,107.2355 63.893,111.4424 65.3426,110.7038 53.1358,73.1351" /><polygon points="70.5342,97.082 95.6444,174.3631 98.7009,178.57 100.1505,177.8314 76.6472,105.4958" /><polygon points="94.0456,129.4427 118.2632,203.9766 121.3197,208.1835 122.7693,207.4449 100.1586,137.8565" /><polygon points="23.5114,32.3607 52.636,53.5209 55.6925,57.7278 54.5421,58.8782 29.6244,40.7745" /><polygon points="47.0228,64.7214 83.1875,90.9965 86.244,95.2034 85.0936,96.3538 53.1358,73.1351" /><polygon points="70.5342,97.082 136.2735,144.8444 139.3299,149.0513 138.1795,150.2017 76.6472,105.4958" /><polygon points="94.0456,129.4427 157.448,175.5072 160.5045,179.7141 159.354,180.8645 100.1586,137.8565" /><polygon points="12.3607,38.0423 12.3607,74.0423 13.9676,78.9878 15.5745,78.7332 15.5745,47.9332" /><polygon points="24.7214,76.0845 24.7214,120.7865 26.3282,125.732 27.9351,125.4775 27.9351,85.9755" /><polygon points="37.082,114.1268 37.082,195.3849 38.6889,200.3304 40.2958,200.0759 40.2958,124.0178" /><polygon points="49.4427,152.169 49.4427,230.5386 51.0496,235.4841 52.6565,235.2296 52.6565,162.06" /><polygon points="12.3607,38.0423 33.5209,67.1669 35.1278,72.1124 33.6782,72.851 15.5745,47.9332" /><polygon points="24.7214,76.0845 50.9965,112.2492 52.6034,117.1947 51.1538,117.9333 27.9351,85.9755" /><polygon points="37.082,114.1268 84.8444,179.866 86.4513,184.8115 85.0017,185.5501 40.2958,124.0178" /><polygon points="49.4427,152.169 95.5072,215.5714 97.1141,220.5169 95.6645,221.2555 52.6565,162.06" /><polygon points="0.0,40.0 -11.1246,74.238 -11.1246,79.438 -9.5177,79.6925 0.0,50.4" /><polygon points="0.0,80.0 -13.8137,122.5141 -13.8137,127.7141 -12.2068,127.9686 0.0,90.4" /><polygon points="0.0,120.0 -25.1102,197.2811 -25.1102,202.4811 -23.5033,202.7356 0.0,130.4" /><polygon points="0.0,160.0 -24.2175,234.5339 -24.2175,239.7339 -22.6106,239.9884 0.0,170.4" /><polygon points="0.0,40.0 11.1246,74.238 11.1246,79.438 9.5177,79.6925 0.0,50.4" /><polygon points="0.0,80.0 13.8137,122.5141 13.8137,127.7141 12.2068,127.9686 0.0,90.4" /><polygon points="0.0,120.0 25.1102,197.2811 25.1102,202.4811 23.5033,202.7356 0.0,130.4" /><polygon points="0.0,160.0 24.2175,234.5339 24.2175,239.7339 22.6106,239.9884 0.0,170.4" /><polygon points="-12.3607,38.0423 -33.5209,67.1669 -35.1278,72.1124 -33.6782,72.851 -15.5745,47.9332" /><polygon points="-24.7214,76.0845 -50.9965,112.2492 -52.6034,117.1947 -51.1538,117.9333 -27.9351,85.9755" /><polygon points="-37.082,114.1268 -84.8444,179.866 -86.4513,184.8115 -85.0017,185.5501 -40.2958,124.0178" /><polygon points="-49.4427,152.169 -95.5072,215.5714 -97.1141,220.5169 -95.6645,221.2555 -52.6565,162.06" /><polygon points="-12.3607,38.0423 -12.3607,74.0423 -13.9676,78.9878 -15.5745,78.7332 -15.5745,47.9332" /><polygon points="-24.7214,76.0845 -24.7214,120.7865 -26.3282,125.732 -27.9351,125.4775 -27.9351,85.9755" /><polygon points="-37.082,114.1268 -37.082,195.3849 -38.6889,200.3304 -40.2958,200.0759 -40.2958,124.0178" /><polygon points="-49.4427,152.169 -49.4427,230.5386 -51.0496,235.4841 -52.6565,235.2296 -52.6565,162.06" /><polygon points="-23.5114,32.3607 -52.636,53.5209 -55.6925,57.7278 -54.5421,58.8782 -29.6244,40.7745" /><polygon points="-47.0228,64.7214 -83.1875,90.9965 -86.244,95.2034 -85.0936,96.3538 -53.1358,73.1351" /><polygon points="-70.5342,97.082 -136.2735,144.8444 -139.3299,149.0513 -138.1795,150.2017 -76.6472,105.4958" /><polygon points="-94.0456,129.4427 -157.448,175.5072 -160.5045,179.7141 -159.354,180.8645 -100.1586,137.8565" /><polygon points="-23.5114,32.3607 -34.636,66.5987 -37.6925,70.8056 -39.1421,70.067 -29.6244,40.7745" /><polygon points="-47.0228,64.7214 -60.8365,107.2355 -63.893,111.4424 -65.3426,110.7038 -53.1358,73.1351" /><polygon points="-70.5342,97.082 -95.6444,174.3631 -98.7009,178.57 -100.1505,177.8314 -76.6472,105.4958" /><polygon points="-94.0456,129.4427 -118.2632,203.9766 -121.3197,208.1835 -122.7693,207.4449 -100.1586,137.8565" /><polygon points="-32.3607,23.5114 -66.5987,34.636 -70.8056,37.6925 -70.067,39.1421 -40.7745,29.6244" /><polygon points="-64.7214,47.0228 -107.2355,60.8365 -111.4424,63.893 -110.7038,65.3426 -73.1351,53.1358" /><polygon points="-97.082,70.5342 -174.3631,95.6444 -178.57,98.7009 -177.8314,100.1505 -105.4958,76.6472" /><polygon points="-129.4427,94.0456 -203.9766,118.2632 -208.1835,121.3197 -207.4449,122.7693 -137.8565,100.1586" /><polygon points="-32.3607,23.5114 -53.5209,52.636 -57.7278,55.6925 -58.8782,54.5421 -40.7745,29.6244" /><polygon points="-64.7214,47.0228 -90.9965,83.1875 -95.2034,86.244 -96.3538,85.0936 -73.1351,53.1358" /><polygon points="-97.082,70.5342 -144.8444,136.2735 -149.0513,139.3299 -150.2017,138.1795 -105.4958,76.6472" /><polygon points="-129.4427,94.0456 -175.5072,157.448 -179.7141,160.5045 -180.8645,159.354 -137.8565,100.1586" /><polygon points="-38.0423,12.3607 -74.0423,12.3607 -78.9878,13.9676 -78.7332,15.5745 -47.9332,15.5745" /><polygon points="-76.0845,24.7214 -120.7865,24.7214 -125.732,26.3282 -125.4775,27.9351 -85.9755,27.9351" /><polygon points="-114.1268,37.082 -195.3849,37.082 -200.3304,38.6889 -200.0759,40.2958 -124.0178,40.2958" /><polygon points="-152.169,49.4427 -230.5386,49.4427 -235.4841,51.0496 -235.2296,52.6565 -162.06,52.6565" /><polygon points="-38.0423,12.3607 -67.1669,33.5209 -72.1124,35.1278 -72.851,33.6782 -47.9332,15.5745" /><polygon points="-76.0845,24.7214 -112.2492,50.9965 -117.1947,52.6034 -117.9333,51.1538 -85.9755,27.9351" /><polygon points="-114.1268,37.082 -179.866,84.8444 -184.8115,86.4513 -185.5501,85.0017 -124.0178,40.2958" /><polygon points="-152.169,49.4427 -215.5714,95.5072 -220.5169,97.1141 -221.2555,95.6645 -162.06,52.6565" /><polygon points="-40.0,0.0 -74.238,-11.1246 -79.438,-11.1246 -79.6925,-9.5177 -50.4,0.0" /><polygon points="-80.0,0.0 -122.5141,-13.8137 -127.7141,-13.8137 -127.9686,-12.2068 -90.4,0.0" /><polygon points="-120.0,0.0 -197.2811,-25.1102 -202.4811,-25.1102 -202.7356,-23.5033 -130.4,0.0" /><polygon points="-160.0,0.0 -234.5339,-24.2175 -239.7339,-24.2175 -239.9884,-22.6106 -170.4,0.0" /><polygon points="-40.0,0.0 -74.238,11.1246 -79.438,11.1246 -79.6925,9.5177 -50.4,0.0" /><polygon points="-80.0,0.0 -122.5141,13.8137 -127.7141,13.8137 -127.9686,12.2068 -90.4,0.0" /><polygon points="-120.0,0.0 -197.2811,25.1102 -202.4811,25.1102 -202.7356,23.5033 -130.4,0.0" /><polygon points="-160.0,0.0 -234.5339,24.2175 -239.7339,24.2175 -239.9884,22.6106 -170.4,0.0" /><polygon points="-38.0423,-12.3607 -67.1669,-33.5209 -72.1124,-35.1278 -72.851,-33.6782 -47.9332,-15.5745" /><polygon points="-76.0845,-24.7214 -112.2492,-50.9965 -117.1947,-52.6034 -117.9333,-51.1538 -85.9755,-27.9351" /><polygon points="-114.1268,-37.082 -179.866,-84.8444 -184.8115,-86.4513 -185.5501,-85.0017 -124.0178,-40.2958" /><polygon points="-152.169,-49.4427 -215.5714,-95.5072 -220.5169,-97.1141 -221.2555,-95.6645 -162.06,-52.6565" /><polygon points="-38.0423,-12.3607 -74.0423,-12.3607 -78.9878,-13.9676 -78.7332,-15.5745 -47.9332,-15.5745" /><polygon points="-76.0845,-24.7214 -120.7865,-24.7214 -125.732,-26.3282 -125.4775,-27.9351 -85.9755,-27.9351" /><polygon points="-114.1268,-37.082 -195.3849,-37.082 -200.3304,-38.6889 -200.0759,-40.2958 -124.0178,-40.2958" /><polygon points="-152.169,-49.4427 -230.5386,-49.4427 -235.4841,-51.0496 -235.2296,-52.6565 -162.06,-52.6565" /><polygon points="-32.3607,-23.5114 -53.5209,-52.636 -57.7278,-55.6925 -58.8782,-54.5421 -40.7745,-29.6244" /><polygon points="-64.7214,-47.0228 -90.9965,-83.1875 -95.2034,-86.244 -96.3538,-85.0936 -73.1351,-53.1358" /><polygon points="-97.082,-70.5342 -144.8444,-136.2735 -149.0513,-139.3299 -150.2017,-138.1795 -105.4958,-76.6472" /><polygon points="-129.4427,-94.0456 -175.5072,-157.448 -179.7141,-160.5045 -180.8645,-159.354 -137.8565,-100.1586" /><polygon points="-32.3607,-23.5114 -66.5987,-34.636 -70.8056,-37.6925 -70.067,-39.1421 -40.7745,-29.6244" /><polygon points="-64.7214,-47.0228 -107.2355,-60.8365 -111.4424,-63.893 -110.7038,-65.3426 -73.1351,-53.1358" /><polygon points="-97.082,-70.5342 -174.3631,-95.6444 -178.57,-98.7009 -177.8314,-100.1505 -105.4958,-76.6472" /><polygon points="-129.4427,-94.0456 -203.9766,-118.2632 -208.1835,-121.3197 -207.4449,-122.7693 -137.8565,-100.1586" /><polygon points="-23.5114,-32.3607 -34.636,-66.5987 -37.6925,-70.8056 -39.1421,-70.067 -29.6244,-40.7745" /><polygon points="-47.0228,-64.7214 -60.8365,-107.2355 -63.893,-111.4424 -65.3426,-110.7038 -53.1358,-73.1351" /><polygon points="-70.5342,-97.082 -95.6444,-174.3631 -98.7009,-178.57 -100.1505,-177.8314 -76.6472,-105.4958" /><polygon points="-94.0456,-129.4427 -118.2632,-203.9766 -121.3197,-208.1835 -122.7693,-207.4449 -100.1586,-137.8565" /><polygon points="-23.5114,-32.3607 -52.636,-53.5209 -55.6925,-57.7278 -54.5421,-58.8782 -29.6244,-40.7745" /><polygon points="-47.0228,-64.7214 -83.1875,-90.9965 -86.244,-95.2034 -85.0936,-96.3538 -53.1358,-73.1351" /><polygon points="-70.5342,-97.082 -136.2735,-144.8444 -139.3299,-149.0513 -138.1795,-150.2017 -76.6472,-105.4958" /><polygon points="-94.0456,-129.4427 -157.448,-175.5072 -160.5045,-179.7141 -159.354,-180.8645 -100.1586,-137.8565" /><polygon points="-12.3607,-38.0423 -12.3607,-74.0423 -13.9676,-78.9878 -15.5745,-78.7332 -15.5745,-47.9332" /><polygon points="-24.7214,-76.0845 -24.7214,-120.7865 -26.3282,-125.732 -27.9351,-125.4775 -27.9351,-85.9755" /><polygon points="-37.082,-114.1268 -37.082,-195.3849 -38.6889,-200.3304 -40.2958,-200.0759 -40.2958,-124.0178" /><polygon points="-49.4427,-152.169 -49.4427,-230.5386 -51.0496,-235.4841 -52.6565,-235.2296 -52.6565,-162.06" /><polygon points="-12.3607,-38.0423 -33.5209,-67.1669 -35.1278,-72.1124 -33.6782,-72.851 -15.5745,-47.9332" /><polygon points="-24.7214,-76.0845 -50.9965,-112.2492 -52.6034,-117.1947 -51.1538,-117.9333 -27.9351,-85.9755" /><polygon points="-37.082,-114.1268 -84.8444,-179.866 -86.4513,-184.8115 -85.0017,-185.5501 -40.2958,-124.0178" /><polygon points="-49.4427,-152.169 -95.5072,-215.5714 -97.1141,-220.5169 -95.6645,-221.2555 -52.6565,-162.06" /><polygon points="-0.0,-40.0 11.1246,-74.238 11.1246,-79.438 9.5177,-79.6925 -0.0,-50.4" /><polygon points="-0.0,-80.0 13.8137,-122.5141 13.8137,-127.7141 12.2068,-127.9686 -0.0,-90.4" /><polygon points="-0.0,-120.0 25.1102,-197.2811 25.1102,-202.4811 23.5033,-202.7356 -0.0,-130.4" /><polygon points="-0.0,-160.0 24.2175,-234.5339 24.2175,-239.7339 22.6106,-239.9884 -0.0,-170.4" /><polygon points="-0.0,-40.0 -11.1246,-74.238 -11.1246,-79.438 -9.5177,-79.6925 -0.0,-50.4" /><polygon points="-0.0,-80.0 -13.8137,-122.5141 -13.8137,-127.7141 -12.2068,-127.9686 -0.0,-90.4" /><polygon points="-0.0,-120.0 -25.1102,-197.2811 -25.1102,-202.4811 -23.5033,-202.7356 -0.0,-130.4" /><polygon points="-0.0,-160.0 -24.2175,-234.5339 -24.2175,-239.7339 -22.6106,-239.9884 -0.0,-170.4" /><polygon points="12.3607,-38.0423 33.5209,-67.1669 35.1278,-72.1124 33.6782,-72.851 15.5745,-47.9332" /><polygon points="24.7214,-76.0845 50.9965,-112.2492 52.6034,-117.1947 51.1538,-117.9333 27.9351,-85.9755" /><polygon points="37.082,-114.1268 84.8444,-179.866 86.4513,-184.8115 85.0017,-185.5501 40.2958,-124.0178" /><polygon points="49.4427,-152.169 95.5072,-215.5714 97.1141,-220.5169 95.6645,-221.2555 52.6565,-162.06" /><polygon points="12.3607,-38.0423 12.3607,-74.0423 13.9676,-78.9878 15.5745,-78.7332 15.5745,-47.9332" /><polygon points="24.7214,-76.0845 24.7214,-120.7865 26.3282,-125.732 27.9351,-125.4775 27.9351,-85.9755" /><polygon points="37.082,-114.1268 37.082,-195.3849 38.6889,-200.3304 40.2958,-200.0759 40.2958,-124.0178" /><polygon points="49.4427,-152.169 49.4427,-230.5386 51.0496,-235.4841 52.6565,-235.2296 52.6565,-162.06" /><polygon points="23.5114,-32.3607 52.636,-53.5209 55.6925,-57.7278 54.5421,-58.8782 29.6244,-40.7745" /><polygon points="47.0228,-64.7214 83.1875,-90.9965 86.244,-95.2034 85.0936,-96.3538 53.1358,-73.1351" /><polygon points="70.5342,-97.082 136.2735,-144.8444 139.3299,-149.0513 138.1795,-150.2017 76.6472,-105.4958" /><polygon points="94.0456,-129.4427 157.448,-175.5072 160.5045,-179.7141 159.354,-180.8645 100.1586,-137.8565" /><polygon points="23.5114,-32.3607 34.636,-66.5987 37.6925,-70.8056 39.1421,-70.067 29.6244,-40.7745" /><polygon points="47.0228,-64.7214 60.8365,-107.2355 63.893,-111.4424 65.3426,-110.7038 53.1358,-73.1351" /><polygon points="70.5342,-97.082 95.6444,-174.3631 98.7009,-178.57 100.1505,-177.8314 76.6472,-105.4958" /><polygon points="94.0456,-129.4427 118.2632,-203.9766 121.3197,-208.1835 122.7693,-207.4449 100.1586,-137.8565" /><polygon points="32.3607,-23.5114 66.5987,-34.636 70.8056,-37.6925 70.067,-39.1421 40.7745,-29.6244" /><polygon points="64.7214,-47.0228 107.2355,-60.8365 111.4424,-63.893 110.7038,-65.3426 73.1351,-53.1358" /><polygon points="97.082,-70.5342 174.3631,-95.6444 178.57,-98.7009 177.8314,-100.1505 105.4958,-76.6472" /><polygon points="129.4427,-94.0456 203.9766,-118.2632 208.1835,-121.3197 207.4449,-122.7693 137.8565,-100.1586" /><polygon points="32.3607,-23.5114 53.5209,-52.636 57.7278,-55.6925 58.8782,-54.5421 40.7745,-29.6244" /><polygon points="64.7214,-47.0228 90.9965,-83.1875 95.2034,-86.244 96.3538,-85.0936 73.1351,-53.1358" /><polygon points="97.082,-70.5342 144.8444,-136.2735 149.0513,-139.3299 150.2017,-138.1795 105.4958,-76.6472" /><polygon points="129.4427,-94.0456 175.5072,-157.448 179.7141,-160.5045 180.8645,-159.354 137.8565,-100.1586" /><polygon points="38.0423,-12.3607 74.0423,-12.3607 78.9878,-13.9676 78.7332,-15.5745 47.9332,-15.5745" /><polygon points="76.0845,-24.7214 120.7865,-24.7214 125.732,-26.3282 125.4775,-27.9351 85.9755,-27.9351" /><polygon points="114.1268,-37.082 195.3849,-37.082 200.3304,-38.6889 200.0759,-40.2958 124.0178,-40.2958" /><polygon points="152.169,-49.4427 230.5386,-49.4427 235.4841,-51.0496 235.2296,-52.6565 162.06,-52.6565" /><polygon points="38.0423,-12.3607 67.1669,-33.5209 72.1124,-35.1278 72.851,-33.6782 47.9332,-15.5745" /><polygon points="76.0845,-24.7214 112.2492,-50.9965 117.1947,-52.6034 117.9333,-51.1538 85.9755,-27.9351" /><polygon points="114.1268,-37.082 179.866,-84.8444 184.8115,-86.4513 185.5501,-85.0017 124.0178,-40.2958" /><polygon points="152.169,-49.4427 215.5714,-95.5072 220.5169,-97.1141 221.2555,-95.6645 162.06,-52.6565" /></g></svg>