<?xml version="1.0" encoding="utf-8" ?>
<svg baseProfile="tiny" height="580.0" version="1.2" width="580.0" xmlns="http://www.w3.org/2000/svg" xmlns:ev="http://www.w3.org/2001/xml-events" xmlns:xlink="http://www.w3.org/1999/xlink"><defs /><g id="polys" transform="translate(290.0,290.0)"><polygon points="196.8698,-6.5 0.0,-6.5 0.0,6.5 196.8698,6.5 200.0,0.0" /><polygon points="127.8282,149.8663 5.0819,-4.0527 -5.0819,4.0527 117.6644,157.9717 124.698,156.3663" /><polygon points="-37.4706,193.3802 6.337,1.4464 -6.337,-1.4464 -50.1447,190.4874 -44.5042,194.9856" /><polygon points="-174.5533,91.2749 2.8202,5.8563 -2.8202,-5.8563 -180.1938,79.5623 -180.1938,86.7767" /><polygon points="-180.1938,-79.5623 -2.8202,5.8563 2.8202,-5.8563 -174.5533,-91.2749 -180.1938,-86.7767" /><polygon points="-50.1447,-190.4874 -6.337,1.4464 6.337,-1.4464 -37.4706,-193.3802 -44.5042,-194.9856" /><polygon points="117.6644,-157.9717 -5.0819,-4.0527 5.0819,4.0527 127.8282,-149.8663 124.698,-156.3663" /><polygon points="33.3333,0.0 52.038,23.4549 57.238,23.4549 59.1959,19.3894 43.7333,0.0" /><polygon points="66.6667,0.0 104.0761,46.9099 109.2761,46.9099 111.2339,42.8444 77.0667,0.0" /><polygon points="100.0,0.0 125.0198,31.3738 130.2198,31.3738 132.1776,27.3083 110.4,0.0" /><polygon points="133.3333,0.0 177.5627,55.4619 182.7627,55.4619 184.7205,51.3963 143.7333,0.0" /><polygon points="166.6667,0.0 195.7231,36.4357 200.9231,36.4357 202.881,32.3701 177.0667,0.0" /><polygon points="33.3333,-0.0 52.038,-23.4549 57.238,-23.4549 59.1959,-19.3894 43.7333,-0.0" /><polygon points="66.6667,-0.0 104.0761,-46.9099 109.2761,-46.9099 111.2339,-42.8444 77.0667,-0.0" /><polygon points="100.0,-0.0 125.0198,-31.3738 130.2198,-31.3738 132.1776,-27.3083 110.4,-0.0" /><polygon points="133.3333,-0.0 177.5627,-55.4619 182.7627,-55.4619 184.7205,-51.3963 143.7333,-0.0" /><polygon points="166.6667,-0.0 195.7231,-36.4357 200.9231,-36.4357 202.881,-32.3701 177.0667,-0.0" /><polygon points="20.783,26.061 14.1074,55.3089 17.3495,59.3744 21.7488,58.3703 27.2673,34.1921" /><polygon points="41.566,52.1221 28.2147,110.6178 31.4569,114.6833 35.8561,113.6792 48.0503,60.2531" /><polygon points="62.349,78.1831 53.4195,117.3056 56.6617,121.3711 61.0609,120.367 68.8333,86.3142" /><polygon points="83.132,104.2442 67.3467,173.404 70.5888,177.4695 74.9881,176.4654 89.6163,112.3752" /><polygon points="103.915,130.3052 93.5448,175.7398 96.787,179.8053 101.1862,178.8012 110.3993,138.4363" /><polygon points="20.783,26.061 50.783,26.061 54.0251,30.1266 52.0673,34.1921 27.2673,34.1921" /><polygon points="41.566,52.1221 101.566,52.1221 104.8081,56.1876 102.8503,60.2531 48.0503,60.2531" /><polygon points="62.349,78.1831 102.4776,78.1831 105.7197,82.2487 103.7618,86.3142 68.8333,86.3142" /><polygon points="83.132,104.2442 154.0703,104.2442 157.3125,108.3097 155.3546,112.3752 89.6163,112.3752" /><polygon points="103.915,130.3052 150.5179,130.3052 153.7601,134.3708 151.8022,138.4363 110.3993,138.4363" /><polygon points="-7.4174,32.4976 -34.4464,45.5141 -35.6035,50.5837 -32.0756,53.3972 -9.7316,42.6368" /><polygon points="-14.8347,64.9952 -68.8929,91.0282 -70.05,96.0978 -66.522,98.9113 -17.1489,75.1344" /><polygon points="-22.2521,97.4928 -58.4067,114.9039 -59.5638,119.9736 -56.0359,122.787 -24.5663,107.632" /><polygon points="-29.6695,129.9904 -93.5827,160.7694 -94.7398,165.839 -91.2119,168.6524 -31.9837,140.1296" /><polygon points="-37.0868,162.488 -79.0746,182.7083 -80.2318,187.7779 -76.7038,190.5913 -39.401,172.6272" /><polygon points="-7.4174,32.4976 11.2873,55.9525 10.1302,61.0222 5.731,62.0263 -9.7316,42.6368" /><polygon points="-14.8347,64.9952 22.5747,111.9051 21.4176,116.9747 17.0183,117.9788 -17.1489,75.1344" /><polygon points="-22.2521,97.4928 2.7677,128.8666 1.6106,133.9362 -2.7887,134.9403 -24.5663,107.632" /><polygon points="-29.6695,129.9904 14.5599,185.4522 13.4028,190.5219 9.0035,191.526 -31.9837,140.1296" /><polygon points="-37.0868,162.488 -8.0303,198.9236 -9.1875,203.9933 -13.5867,204.9974 -39.401,172.6272" /><polygon points="-30.0323,14.4628 -57.0614,1.4463 -61.7464,3.7025 -61.7464,8.2149 -39.4024,18.9752" /><polygon points="-60.0646,28.9256 -114.1227,2.8926 -118.8078,5.1488 -118.8078,9.6611 -69.4347,33.438" /><polygon points="-90.0969,43.3884 -126.2515,25.9772 -130.9365,28.2334 -130.9365,32.7458 -99.467,47.9008" /><polygon points="-120.1292,57.8512 -184.0424,27.0722 -188.7275,29.3284 -188.7275,33.8407 -129.4993,62.3636" /><polygon points="-150.1615,72.314 -192.1493,52.0937 -196.8343,54.3499 -196.8343,58.8623 -159.5316,76.8263" /><polygon points="-30.0323,14.4628 -36.7079,43.7106 -41.393,45.9668 -44.9209,43.1534 -39.4024,18.9752" /><polygon points="-60.0646,28.9256 -73.4158,87.4213 -78.1009,89.6775 -81.6288,86.864 -69.4347,33.438" /><polygon points="-90.0969,43.3884 -99.0263,82.5108 -103.7114,84.767 -107.2393,81.9536 -99.467,47.9008" /><polygon points="-120.1292,57.8512 -135.9145,127.011 -140.5995,129.2672 -144.1274,126.4537 -129.4993,62.3636" /><polygon points="-150.1615,72.314 -160.5316,117.7485 -165.2167,120.0047 -168.7446,117.1913 -159.5316,76.8263" /><polygon points="-30.0323,-14.4628 -36.7079,-43.7106 -41.393,-45.9668 -44.9209,-43.1534 -39.4024,-18.9752" /><polygon points="-60.0646,-28.9256 -73.4158,-87.4213 -78.1009,-89.6775 -81.6288,-86.864 -69.4347,-33.438" /><polygon points="-90.0969,-43.3884 -99.0263,-82.5108 -103.7114,-84.767 -107.2393,-81.9536 -99.467,-47.9008" /><polygon points="-120.1292,-57.8512 -135.9145,-127.011 -140.5995,-129.2672 -144.1274,-126.4537 -129.4993,-62.3636" /><polygon points="-150.1615,-72.314 -160.5316,-117.7485 -165.2167,-120.0047 -168.7446,-117.1913 -159.5316,-76.8263" /><polygon points="-30.0323,-14.4628 -57.0614,-1.4463 -61.7464,-3.7025 -61.7464,-8.2149 -39.4024,-18.9752" /><polygon points="-60.0646,-28.9256 -114.1227,-2.8926 -118.8078,-5.1488 -118.8078,-9.6611 -69.4347,-33.438" /><polygon points="-90.0969,-43.3884 -126.2515,-25.9772 -130.9365,-28.2334 -130.9365,-32.7458 -99.467,-47.9008" /><polygon points="-120.1292,-57.8512 -184.0424,-27.0722 -188.7275,-29.3284 -188.7275,-33.8407 -129.4993,-62.3636" /><polygon points="-150.1615,-72.314 -192.1493,-52.0937 -196.8343,-54.3499 -196.8343,-58.8623 -159.5316,-76.8263" /><polygon points="-7.4174,-32.4976 11.2873,-55.9525 10.1302,-61.0222 5.731,-62.0263 -9.7316,-42.6368" /><polygon points="-14.8347,-64.9952 22.5747,-111.9051 21.4176,-116.9747 17.0183,-117.9788 -17.1489,-75.1344" /><polygon points="-22.2521,-97.4928 2.7677,-128.8666 1.6106,-133.9362 -2.7887,-134.9403 -24.5663,-107.632" /><polygon points="-29.6695,-129.9904 14.5599,-185.4522 13.4028,-190.5219 9.0035,-191.526 -31.9837,-140.1296" /><polygon points="-37.0868,-162.488 -8.0303,-198.9236 -9.1875,-203.9933 -13.5867,-204.9974 -39.401,-172.6272" /><polygon points="-7.4174,-32.4976 -34.4464,-45.5141 -35.6035,-50.5837 -32.0756,-53.3972 -9.7316,-42.6368" /><polygon points="-14.8347,-64.9952 -68.8929,-91.0282 -70.05,-96.0978 -66.522,-98.9113 -17.1489,-75.1344" /><polygon points="-22.2521,-97.4928 -58.4067,-114.9039 -59.5638,-119.9736 -56.0359,-122.787 -24.5663,-107.632" /><polygon points="-29.6695,-129.9904 -93.5827,-160.7694 -94.7398,-165.839 -91.2119,-168.6524 -31.9837,-140.1296" /><polygon points="-37.0868,-162.488 -79.0746,-182.7083 -80.2318,-187.7779 -76.7038,-190.5913 -39.401,-172.6272" /><polygon points="20.783,-26.061 50.783,-26.061 54.0251,-30.1266 52.0673,-34.1921 27.2673,-34.1921" /><polygon points="41.566,-52.1221 101.566,-52.1221 104.8081,-56.1876 102.8503,-60.2531 48.0503,-60.2531" /><polygon points="62.349,-78.1831 102.4776,-78.1831 105.7197,-82.2487 103.7618,-86.3142 68.8333,-86.3142" /><polygon points="83.132,-104.2442 154.0703,-104.2442 157.3125,-108.3097 155.3546,-112.3752 89.6163,-112.3752" /><polygon points="103.915,-130.3052 150.5179,-130.3052 153.7601,-134.3708 151.8022,-138.4363 110.3993,-138.4363" /><polygon points="20.783,-26.061 14.1074,-55.3089 17.3495,-59.3744 21.7488,-58.3703 27.2673,-34.1921" /><polygon points="41.566,-52.1221 28.2147,-110.6178 31.4569,-114.6833 35.8561,-113.6792 48.0503,-60.2531" /><polygon points="62.349,-78.1831 53.4195,-117.3056 56.6617,-121.3711 61.0609,-120.367 68.8333,-86.3142" /><polygon points="83.132,-104.2442 67.3467,-173.404 70.5888,-177.4695 74.9881,-176.4654 89.6163,-112.3752" /><polygon points="103.915,-130.3052 93.5448,-175.7398 96.787,-179.8053 101.1862,-178.8012 110.3993,-138.4363" /></g></svg>